PathFileType	4	(X/Y/Z)	 s07c0402.trc
DataRate	CameraRate	NumFrames	NumMarkers	Units	OrigDataRate	OrigDataStartFrame	OrigNumFrames
200	200	6	48	mm	200	1	2000
Frame#	Time	racr			lacr			c7			jug			rlel			rdr			llel			ldr			s2			lic			ric			lasi			rasi			rpsi			lpsi			rgt			lgt			rth1			rth2			rth3			rth4			rlfc			rmfc			rsh1			rsh2			rsh3			rsh4			rlmal			rcal			rtoe			rmt5			lth1			lth2			lth4			lth3			llfc			lmfc			lsh1			lsh2			lsh3			lsh4			llmal			lcal			ltoe			lmt5			SBIKE			LBIKE			RBIKE			
		X1	Y1	Z1	X2	Y2	Z2	X3	Y3	Z3	X4	Y4	Z4	X5	Y5	Z5	X6	Y6	Z6	X7	Y7	Z7	X8	Y8	Z8	X9	Y9	Z9	X10	Y10	Z10	X11	Y11	Z11	X12	Y12	Z12	X13	Y13	Z13	X14	Y14	Z14	X15	Y15	Z15	X16	Y16	Z16	X17	Y17	Z17	X18	Y18	Z18	X19	Y19	Z19	X20	Y20	Z20	X21	Y21	Z21	X22	Y22	Z22	X23	Y23	Z23	X24	Y24	Z24	X25	Y25	Z25	X26	Y26	Z26	X27	Y27	Z27	X28	Y28	Z28	X29	Y29	Z29	X30	Y30	Z30	X31	Y31	Z31	X32	Y32	Z32	X33	Y33	Z33	X34	Y34	Z34	X35	Y35	Z35	X36	Y36	Z36	X37	Y37	Z37	X38	Y38	Z38	X39	Y39	Z39	X40	Y40	Z40	X41	Y41	Z41	X42	Y42	Z42	X43	Y43	Z43	X44	Y44	Z44	X45	Y45	Z45	X46	Y46	Z46	X47	Y47	Z47	X48	Y48	Z48	
1	0.0050	438.084296	1456.239112	-85.841686	421.057806	1445.810880	-356.888574	411.859396	1484.027251	-230.940503	380.031148	1343.758604	-227.126860	484.029383	1139.609594	53.904944	688.576149	935.465381	-35.125199	500.961626	1150.688092	-501.905545	695.586952	931.732134	-431.195137	-135.040547	1207.411995	-241.223696	30.757342	1257.817051	-380.738633	33.647844	1245.509758	-87.214412	62.994777	1176.494805	-354.551513	45.773206	1188.659237	-106.785947	-110.329313	1246.002630	-187.825985	-93.777922	1255.966234	-295.822641	-27.624561	1123.895406	-44.143763	-28.093001	1100.042531	-410.848528	110.339859	1063.212428	-36.717791	196.275713	1046.077370	-43.892532	263.090984	992.969684	-39.090580	209.845690	1076.203134	-60.687480	382.746014	911.651406	-70.585391	382.672172	899.552326	-174.851672	334.890977	775.657136	-52.311822	323.375677	689.481842	-74.833292	273.760099	618.381184	-73.551237	339.408054	689.075589	-111.442378	216.928110	495.435089	-80.068877	148.274933	457.664445	-109.808935	437.054467	425.780561	-118.761736	357.555011	395.343627	-49.457939	31.781216	992.963729	-417.654340	100.458941	939.391488	-423.608326	130.119261	959.199255	-415.387811	133.509546	855.136984	-419.067183	223.156264	697.780276	-387.076851	212.318595	682.555539	-290.096207	129.225003	579.635429	-407.866466	90.735655	505.410176	-386.445753	18.593117	452.168231	-395.979000	92.832359	507.761151	-345.127074	-73.673829	352.794807	-393.977753	-152.557327	325.628502	-361.782096	129.403019	260.650440	-354.793570	47.182349	249.898579	-420.356991	-259.919864	971.732994	-233.188387	-75.882956	83.572312	-438.357195	-82.584516	79.054074	-40.720107	
2	0.0100	438.075117	1456.228492	-85.842653	421.078515	1445.833787	-356.873265	411.858224	1484.045093	-230.919426	380.010797	1343.755883	-227.103940	484.058130	1139.579678	53.866919	688.564213	935.447545	-35.119210	500.992903	1150.693716	-501.880600	695.616456	931.749159	-431.240325	-134.998954	1207.406113	-241.238216	30.749077	1257.790442	-380.739356	33.641359	1245.542675	-87.212049	62.997461	1176.428707	-354.559675	45.779063	1188.703413	-106.806086	-110.485948	1245.833909	-187.854397	-93.759290	1255.981790	-295.839167	-27.615610	1123.910403	-44.133247	-28.089201	1100.047136	-410.838436	110.395111	1063.269748	-36.757429	196.318862	1046.157955	-43.958624	263.154473	993.087395	-39.167610	209.910676	1076.364679	-60.682216	382.816832	911.827742	-70.652688	382.712699	899.694866	-174.929861	334.904234	775.865752	-52.403106	323.363362	689.631451	-74.886372	273.710199	618.623275	-73.579015	339.388264	689.235372	-111.488551	216.821889	495.675509	-80.101038	148.203049	457.883593	-109.831571	436.959496	425.987469	-118.765064	357.459981	395.536638	-49.457728	31.790741	992.943478	-417.652985	100.466131	939.375558	-423.607265	130.129022	959.177884	-415.394636	133.514184	855.114114	-419.087048	223.135931	697.768419	-387.089181	212.287995	682.514191	-290.079746	129.253867	579.585122	-407.879627	90.801092	505.347652	-386.465179	18.684193	452.054131	-396.067944	92.934417	507.703010	-345.134275	-73.552346	352.658793	-393.978726	-152.417325	325.547339	-361.805453	129.528826	260.431501	-354.792791	47.277916	249.728428	-420.364302	-259.928292	971.744199	-233.197715	-75.881905	83.556083	-438.332336	-82.616237	79.099323	-40.725230	
3	0.0150	438.078525	1456.245674	-85.829726	421.074024	1445.858219	-356.865427	411.857089	1484.050569	-230.918579	380.008279	1343.800432	-227.098560	484.064457	1139.570791	53.864294	688.575497	935.436815	-35.115332	501.021553	1150.704511	-501.856670	695.618225	931.739480	-431.244611	-135.006494	1207.407289	-241.232548	30.738353	1257.797780	-380.720928	33.634739	1245.554445	-87.206294	63.003415	1176.466119	-354.567653	45.765486	1188.723744	-106.803282	-110.466971	1245.829275	-187.887338	-93.751497	1255.966843	-295.831320	-27.625803	1123.932707	-44.135572	-28.074269	1100.045070	-410.829304	110.410577	1063.337527	-36.763277	196.351685	1046.221975	-43.993806	263.203044	993.229780	-39.241335	209.930571	1076.452335	-60.723982	382.873179	911.997346	-70.727125	382.751386	899.840651	-175.006344	334.931042	776.066954	-52.470683	323.341499	689.784336	-74.919754	273.672048	618.837130	-73.616813	339.377763	689.414233	-111.544027	216.749306	495.865531	-80.129552	148.138480	458.118995	-109.858064	436.871266	426.185755	-118.777747	357.368739	395.689316	-49.459439	31.797204	992.933712	-417.651179	100.465156	939.352768	-423.610841	130.130685	959.154924	-415.394858	133.501083	855.086856	-419.069555	223.119005	697.728094	-387.072533	212.263561	682.473793	-290.073910	129.280318	579.514277	-407.874308	90.854381	505.269046	-386.475048	18.742034	451.969620	-396.055067	92.964924	507.617530	-345.130110	-73.431862	352.512307	-393.995014	-152.297050	325.402538	-361.791375	129.630707	260.221414	-354.789496	47.403340	249.529771	-420.322944	-259.924524	971.740282	-233.191450	-75.870722	83.550423	-438.322433	-82.663415	79.188964	-40.693378	
4	0.0200	438.075616	1456.273313	-85.803192	421.070991	1445.932308	-356.847409	411.690416	1483.742547	-230.602300	380.005761	1343.844982	-227.093182	483.806290	1140.222488	54.283266	688.565543	935.428046	-35.123025	501.046628	1150.725101	-501.833582	695.932060	932.369756	-431.970808	-135.456730	1207.502910	-241.052552	29.520344	1256.886589	-378.706586	33.499933	1246.113338	-87.644500	63.008146	1176.442229	-354.550452	45.763750	1188.746758	-106.806248	-110.734962	1245.266868	-188.032028	-93.736063	1255.961753	-295.838926	-27.315705	1123.734718	-44.227232	-28.060040	1100.031729	-410.838963	110.343502	1063.222116	-36.565954	196.398568	1046.309566	-44.059890	263.148293	993.342081	-39.378259	209.862536	1076.279954	-61.126960	382.950035	912.175156	-70.825585	382.804044	899.992064	-175.102918	334.953172	776.236072	-52.518838	323.215095	689.871530	-75.066347	273.645005	618.937917	-73.606190	339.453707	689.523423	-111.651913	216.248215	496.676893	-79.712337	148.076615	458.467840	-109.931702	436.560915	426.911027	-118.578792	357.181393	395.744110	-49.595475	31.811210	992.921420	-417.636266	100.744500	938.172685	-422.347650	130.121260	959.190053	-415.436443	133.273226	855.319964	-418.861438	223.099406	697.692169	-387.056377	211.581467	683.177406	-289.367731	129.293496	579.457220	-407.896601	91.024322	504.862475	-386.612586	18.664204	451.996272	-396.055957	93.425699	507.347331	-344.911161	-73.334183	352.729781	-394.512622	-152.191294	325.270255	-361.801643	129.732873	260.025579	-354.777729	47.496445	249.345284	-420.341132	-260.031079	971.770760	-233.599842	-75.881500	83.558896	-438.326919	-82.656323	79.171090	-40.694728	
5	0.0250	438.092763	1456.049848	-85.845014	421.070340	1445.857328	-356.865870	411.682145	1483.725925	-230.594412	380.044608	1343.882034	-227.086481	483.879101	1140.243940	54.218450	688.690283	935.120783	-35.268184	501.210072	1150.415886	-501.918403	695.712870	932.161928	-431.619907	-135.491906	1207.531809	-241.179606	24.635660	1251.628164	-365.755906	33.498299	1246.140186	-87.644330	63.095526	1176.000964	-354.639474	45.749550	1188.795808	-106.816698	-110.628527	1245.392544	-188.104065	-93.710047	1255.993821	-295.924520	-27.110473	1123.379951	-44.447942	-27.053752	1097.857038	-404.171102	110.379506	1063.370566	-36.655670	196.429509	1046.441385	-44.095053	263.228367	993.542969	-39.497017	209.963588	1076.545177	-61.163948	383.090140	912.447998	-70.665875	383.003782	899.773848	-175.574031	335.120794	776.112092	-52.821353	323.288472	689.639029	-75.156093	273.857814	618.734608	-73.874451	339.553551	689.337641	-111.894984	216.326219	496.857540	-79.733995	148.099237	458.695135	-109.866285	436.504472	427.069573	-118.475636	357.221453	395.568838	-49.683803	32.715711	990.565327	-411.762091	101.692015	935.593357	-416.846943	131.138192	956.452991	-409.419912	134.595056	852.416091	-412.420192	223.247240	697.315679	-387.025168	211.555789	683.097544	-289.614343	129.484430	579.052253	-407.896296	91.168007	504.695403	-386.492280	19.140104	451.503878	-395.096328	109.040192	509.756697	-339.284532	-73.211298	352.541783	-394.513756	-152.112964	325.136715	-361.749480	129.841358	259.860309	-354.766617	46.328379	241.069580	-408.995282	-260.005715	971.767168	-233.524833	-75.915199	83.503910	-438.399177	-82.514801	78.647973	-40.957140	
6	0.0300	438.045288	1456.450674	-85.773108	421.061520	1445.827528	-356.845780	411.699381	1483.662630	-230.584242	380.037785	1343.885757	-227.070317	483.676545	1140.107726	54.044208	688.554415	935.537869	-35.236585	501.234485	1151.066949	-502.116221	695.633365	932.042162	-431.417238	-135.476725	1207.551930	-241.112950	24.667425	1251.448597	-365.804214	33.487191	1246.150624	-87.664880	63.005338	1176.650349	-354.524225	45.739722	1188.811003	-106.826071	-110.606440	1245.419819	-188.118471	-93.659180	1255.911881	-295.927982	-27.469625	1124.079949	-44.179353	-27.239900	1097.286943	-402.656219	110.391236	1063.394987	-36.663610	196.460127	1046.537296	-44.162285	263.277936	993.649835	-39.544588	209.962490	1076.674016	-61.200645	383.168219	912.592460	-70.752137	382.779942	900.433770	-175.159048	334.865177	776.792015	-52.585103	323.118488	690.382048	-75.234606	273.442305	619.559657	-73.586318	339.490444	690.071943	-111.581589	216.420337	496.962260	-79.930160	148.052292	458.882801	-109.861583	436.393271	427.163285	-118.441924	356.933860	396.339852	-49.483733	32.567557	989.893918	-410.260693	100.173283	933.281172	-411.982261	132.630621	956.214436	-408.434657	134.486725	851.651421	-411.061015	225.358522	694.243702	-380.121913	211.457394	683.050518	-289.523417	134.660876	576.697720	-401.416846	92.800003	502.507730	-381.151919	19.017928	451.469305	-394.852829	107.700428	508.404308	-338.527568	-73.165851	351.968850	-393.986003	-152.059795	324.846970	-361.690132	129.911522	259.631782	-354.723596	46.640695	240.892537	-408.845134	-260.008658	971.782544	-233.494909	-76.106736	83.346595	-438.511161	-82.879337	79.442139	-40.813319	
